<svg width="60" height="60" viewBox="0 0 60 60" fill="none" xmlns="http://www.w3.org/2000/svg">
<path d="M40 32V28H44V32H40Z" fill="#3D9587"/>
<path fill-rule="evenodd" clip-rule="evenodd" d="M30 1.68396L56 16.852V43.148L30 58.32L4 43.148V16.852L30 1.68396ZM25.328 16C21.7932 16 18.4032 17.4042 15.9037 19.9036C13.4042 22.4031 12 25.7932 12 29.328V30.672C12.0005 32.9431 12.5814 35.1765 13.6876 37.16C14.7937 39.1436 16.3884 40.8116 18.3203 42.0058C20.2522 43.1999 22.4571 43.8806 24.726 43.9832C26.9948 44.0858 29.2522 43.6069 31.284 42.592L32.896 41.792L31.104 38.212L29.496 39.012C28.0746 39.7231 26.4951 40.0591 24.9074 39.9881C23.3196 39.9171 21.7764 39.4414 20.4242 38.6062C19.072 37.771 17.9558 36.604 17.1814 35.2161C16.4071 33.8281 16.0004 32.2653 16 30.676V29.332C16.0002 27.7424 16.4066 26.1792 17.1806 24.7908C17.9546 23.4024 19.0706 22.2348 20.4227 21.3989C21.7748 20.563 23.318 20.0865 24.906 20.0145C26.4939 19.9426 28.0739 20.2777 29.496 20.988L31.104 21.792L32.896 18.216L31.284 17.412C29.4339 16.485 27.3973 16.0016 25.328 16ZM36 20V24H32V28H36V32H32V36H36V40H40V36H44V40H48V36H52V32H48V28H52V24H48V20H44V24H40V20H36Z" fill="#3D9587"/>
</svg>
