<svg width="110" height="111" viewBox="0 0 110 111" fill="none" xmlns="http://www.w3.org/2000/svg">
<path d="M36.6255 34.6912C36.1858 37.1389 35.8047 39.2308 35.7754 39.3278C35.7266 39.5111 36.5864 39.5219 52.836 39.5219C69.0855 39.5219 69.9454 39.5327 69.8965 39.7052C69.8672 39.813 69.6718 40.9452 69.4471 42.2176C69.2223 43.49 68.9976 44.7624 68.939 45.0427L68.8413 45.5603L51.7318 45.5818L34.6224 45.6142L33.8212 50.143C33.3717 52.6338 33.0102 54.7041 33.0102 54.7473C33.0004 54.8012 40.6903 54.8335 50.0903 54.8335H67.1704L66.2617 59.8691C65.7535 62.6511 65.3236 65.0233 65.2943 65.1527C65.2454 65.3683 64.4735 65.6703 58.4349 67.8807C54.6925 69.2394 51.5755 70.3608 51.5071 70.3608C51.3996 70.3608 39.6448 65.4438 39.5862 65.3683C39.5764 65.3576 39.7328 64.4087 39.9477 63.2549C40.1529 62.1011 40.3288 61.066 40.3288 60.9582C40.3288 60.7749 40.1432 60.7641 36.1565 60.7856L31.9842 60.818L30.9777 66.3604C30.4305 69.4119 29.9811 71.9135 30.0006 71.9243C30.0104 71.9351 34.4563 73.8113 39.8793 76.0973L49.7385 80.2487L61.034 76.0973C67.2485 73.8221 72.3687 71.9135 72.4078 71.8704C72.4664 71.8057 79.9805 30.6261 80 30.2702C80 30.2594 70.4242 30.2487 58.7085 30.2487H37.4267L36.6255 34.6912Z" fill="#3D9587"/>
</svg>
