<svg width="124" height="27" viewBox="0 0 124 27" fill="none" xmlns="http://www.w3.org/2000/svg">
<path d="M4.74 21L4.74 9.14L0.2 9.14L0.2 6.6L12 6.6L12 9.14L7.46 9.14L7.46 21L4.74 21ZM13.107 21L13.107 6.6L19.187 6.6C19.327 6.6 19.5137 6.60667 19.747 6.62C19.987 6.62667 20.2004 6.64667 20.387 6.68C21.247 6.81333 21.9504 7.09667 22.497 7.53C23.0504 7.96333 23.457 8.51 23.717 9.17C23.977 9.82333 24.107 10.5533 24.107 11.36C24.107 12.5667 23.807 13.6 23.207 14.46C22.607 15.3133 21.667 15.84 20.387 16.04L19.187 16.12L15.827 16.12L15.827 21L13.107 21ZM21.227 21L18.387 15.14L21.187 14.6L24.307 21L21.227 21ZM15.827 13.58L19.067 13.58C19.207 13.58 19.3604 13.5733 19.527 13.56C19.6937 13.5467 19.847 13.52 19.987 13.48C20.3537 13.38 20.637 13.2133 20.837 12.98C21.037 12.74 21.1737 12.4767 21.247 12.19C21.327 11.8967 21.367 11.62 21.367 11.36C21.367 11.1 21.327 10.8267 21.247 10.54C21.1737 10.2467 21.037 9.98333 20.837 9.75C20.637 9.51 20.3537 9.34 19.987 9.24C19.847 9.2 19.6937 9.17333 19.527 9.16C19.3604 9.14667 19.207 9.14 19.067 9.14L15.827 9.14L15.827 13.58ZM26.2055 21L26.2055 6.6L28.9255 6.6L28.9255 21L26.2055 21ZM31.4234 21L31.4234 6.6L37.5034 6.6C37.6434 6.6 37.8301 6.60667 38.0634 6.62C38.3034 6.62667 38.5168 6.64667 38.7034 6.68C39.5634 6.81333 40.2668 7.09667 40.8134 7.53C41.3668 7.96333 41.7734 8.51 42.0334 9.17C42.2934 9.82333 42.4234 10.5533 42.4234 11.36C42.4234 12.1667 42.2901 12.9 42.0234 13.56C41.7634 14.2133 41.3568 14.7567 40.8034 15.19C40.2568 15.6233 39.5568 15.9067 38.7034 16.04C38.5168 16.0667 38.3034 16.0867 38.0634 16.1C37.8234 16.1133 37.6368 16.12 37.5034 16.12L34.1434 16.12L34.1434 21L31.4234 21ZM34.1434 13.58L37.3834 13.58C37.5234 13.58 37.6768 13.5733 37.8434 13.56C38.0101 13.5467 38.1634 13.52 38.3034 13.48C38.6701 13.38 38.9534 13.2133 39.1534 12.98C39.3534 12.74 39.4901 12.4767 39.5634 12.19C39.6434 11.8967 39.6834 11.62 39.6834 11.36C39.6834 11.1 39.6434 10.8267 39.5634 10.54C39.4901 10.2467 39.3534 9.98333 39.1534 9.75C38.9534 9.51 38.6701 9.34 38.3034 9.24C38.1634 9.2 38.0101 9.17333 37.8434 9.16C37.6768 9.14667 37.5234 9.14 37.3834 9.14L34.1434 9.14L34.1434 13.58ZM44.1312 21L44.1312 6.6L46.8512 6.6L46.8512 18.46L53.0513 18.46L53.0512 21L44.1312 21ZM54.2516 21L54.2516 6.6L63.6516 6.6L63.6516 9.14L56.9716 9.14L56.9716 12.22L62.4516 12.22L62.4516 14.76L56.9716 14.76L56.9716 18.46L63.6516 18.46L63.6516 21L54.2516 21ZM65.3484 14.84L65.3484 12.74L71.3484 12.74L71.3484 14.84L65.3484 14.84ZM76.7869 21L76.7869 9.14L72.2469 9.14L72.2469 6.6L84.0469 6.6L84.0469 9.14L79.5069 9.14L79.5069 21L76.7869 21ZM85.1539 21L85.1539 6.6L94.5539 6.6L94.5539 9.14L87.8739 9.14L87.8739 12.22L93.3539 12.22L93.3539 14.76L87.8739 14.76L87.8739 18.46L94.5539 18.46L94.5539 21L85.1539 21ZM102.123 21.3C100.683 21.3 99.4396 20.9867 98.393 20.36C97.353 19.7333 96.5496 18.8567 95.983 17.73C95.423 16.6033 95.143 15.2933 95.143 13.8C95.143 12.3067 95.423 10.9967 95.983 9.87C96.5496 8.74333 97.353 7.86667 98.393 7.24C99.4396 6.61334 100.683 6.3 102.123 6.3C103.776 6.3 105.163 6.71 106.283 7.53C107.41 8.35 108.203 9.46 108.663 10.86L105.923 11.62C105.656 10.7467 105.206 10.07 104.573 9.59C103.94 9.10333 103.123 8.86 102.123 8.86C101.21 8.86 100.446 9.06333 99.833 9.47C99.2263 9.87667 98.7696 10.45 98.463 11.19C98.1563 11.93 98.003 12.8 98.003 13.8C98.003 14.8 98.1563 15.67 98.463 16.41C98.7696 17.15 99.2263 17.7233 99.833 18.13C100.446 18.5367 101.21 18.74 102.123 18.74C103.123 18.74 103.94 18.4967 104.573 18.01C105.206 17.5233 105.656 16.8467 105.923 15.98L108.663 16.74C108.203 18.14 107.41 19.25 106.283 20.07C105.163 20.89 103.776 21.3 102.123 21.3ZM110.365 21L110.365 6.6L113.085 6.6L113.085 12.52L119.525 12.52L119.525 6.6L122.245 6.6L122.245 21L119.525 21L119.525 15.06L113.085 15.06L113.085 21L110.365 21Z" fill="#0A192F"/>
</svg>
