<svg width="60" height="60" viewBox="0 0 60 60" fill="none" xmlns="http://www.w3.org/2000/svg">
<path d="M18.9072 36.6506H18.1173V32.1272C18.1173 31.77 18.1408 31.335 18.183 30.8217H18.1651C18.0908 31.1217 18.0236 31.3391 17.9636 31.4738L15.6658 36.6506H15.2809L12.9789 31.5113C12.9142 31.3678 12.8462 31.1367 12.7773 30.8217H12.7605C12.7855 31.0914 12.7981 31.5296 12.7984 32.1361V36.6506H12.0362V29.9142H13.0792L15.1459 34.6116C15.3009 34.9653 15.4026 35.2341 15.4511 35.4178H15.4834C15.583 35.1395 15.6906 34.8641 15.8059 34.5919L17.9176 29.9142H18.9067L18.9072 36.6506ZM21.3391 36.6506H20.5708V31.8399H21.3391V36.6506ZM21.4717 30.1153C21.4717 30.2569 21.4222 30.3761 21.3231 30.473C21.2766 30.5205 21.2208 30.558 21.1592 30.5832C21.0976 30.6083 21.0315 30.6206 20.965 30.6192C20.8995 30.6203 20.8344 30.6084 20.7735 30.5841C20.7126 30.5599 20.6571 30.5239 20.6101 30.4781C20.5615 30.4314 20.5233 30.375 20.498 30.3124C20.4727 30.2499 20.4609 30.1827 20.4634 30.1153C20.4634 29.9763 20.5123 29.8585 20.6101 29.7619C20.7569 29.6171 20.8276 29.6189 20.965 29.6189C21.1056 29.6189 21.2261 29.6653 21.3231 29.7619C21.4222 29.8585 21.4717 29.9763 21.4717 30.1153ZM26.1395 36.428C25.7705 36.6539 25.3311 36.7667 24.8214 36.7664C24.1314 36.7664 23.5769 36.5377 23.1522 36.0802C22.7397 35.6364 22.5333 35.0635 22.533 34.3613C22.533 33.5733 22.758 32.9353 23.2126 32.4502C23.6645 31.9649 24.2726 31.7222 25.037 31.7222C25.4548 31.7222 25.8259 31.8036 26.1503 31.9664V32.7572C25.7912 32.505 25.4116 32.3799 25.0042 32.3799C24.5145 32.3799 24.1153 32.5506 23.8066 32.8922C23.4841 33.2419 23.3225 33.7083 23.3219 34.2914C23.3219 34.8511 23.47 35.2944 23.7662 35.6213C24.063 35.9466 24.4581 36.1097 24.9559 36.1097C25.3762 36.1097 25.7706 35.9719 26.1391 35.6963L26.1395 36.428ZM29.8145 32.6203C29.6792 32.5163 29.4831 32.4646 29.2262 32.4652C28.9131 32.4646 28.6501 32.6053 28.4373 32.8875C28.1961 33.2028 28.0756 33.6396 28.0759 34.1977V36.6502H27.3053V31.8399H28.0759V32.8317H28.0942C28.2076 32.4811 28.3814 32.2103 28.6155 32.0194C28.8229 31.8485 29.0836 31.7555 29.3523 31.7564C29.5576 31.7564 29.7095 31.7785 29.8136 31.8221L29.8145 32.6203ZM34.1055 34.2539C34.1055 33.638 33.9664 33.1683 33.6883 32.8449C33.4189 32.5346 33.0414 32.3796 32.5558 32.3799C32.0767 32.3799 31.6934 32.5366 31.4059 32.85C31.1028 33.1847 30.9511 33.6589 30.9508 34.2727C30.9508 34.8483 31.0951 35.3002 31.3867 35.6222C31.6764 35.9466 32.0661 36.1089 32.5558 36.1092C33.0626 36.1089 33.4492 35.9447 33.7155 35.6166C33.9755 35.2963 34.1055 34.842 34.1055 34.2539ZM34.8953 34.2272C34.895 34.9941 34.679 35.6088 34.2475 36.0713C33.8144 36.5347 33.2316 36.7664 32.4991 36.7664C31.7772 36.7664 31.202 36.5349 30.7811 36.0713C30.368 35.6247 30.1612 35.0347 30.1609 34.3013C30.1609 33.4641 30.3953 32.8191 30.8655 32.3611C31.3008 31.9358 31.883 31.7228 32.612 31.7222C33.3292 31.7222 33.8898 31.9458 34.2934 32.3888C34.6933 32.8341 34.8953 33.4472 34.8953 34.2272ZM38.7137 35.3635C38.7137 35.7572 38.5666 36.0839 38.2722 36.3436C37.9501 36.6253 37.5081 36.766 36.9522 36.766C36.497 36.766 36.0981 36.6708 35.7592 36.4763V35.6485C36.1358 35.9553 36.5525 36.1089 37.0094 36.1092C37.6194 36.1092 37.9244 35.8852 37.9244 35.4371C37.9269 35.3495 37.9101 35.2625 37.8752 35.1822C37.8403 35.1019 37.7881 35.0303 37.7223 34.9725C37.5867 34.8497 37.3234 34.7024 36.9325 34.5305C36.5294 34.3546 36.243 34.1728 36.0733 33.9853C35.8698 33.7625 35.768 33.4728 35.7676 33.1163C35.7676 32.7169 35.9275 32.3846 36.243 32.1202C36.5589 31.8546 36.9661 31.7217 37.4645 31.7217C37.8464 31.7214 38.1892 31.7966 38.493 31.9472V32.7225C38.1761 32.4938 37.8122 32.3794 37.4012 32.3794C37.1462 32.3794 36.9414 32.4431 36.7886 32.5664C36.6342 32.6927 36.557 32.8542 36.557 33.0511C36.557 33.2642 36.6214 33.43 36.7501 33.5485C36.8645 33.6577 37.1069 33.7917 37.4725 33.9478C37.8834 34.1203 38.1795 34.298 38.3608 34.4808C38.5955 34.712 38.7131 35.0063 38.7137 35.3635ZM43.42 34.2539C43.42 33.638 43.2806 33.1683 43.0019 32.8449C42.7322 32.5346 42.3548 32.3796 41.8698 32.3799C41.3911 32.3799 41.0073 32.5366 40.7186 32.85C40.4158 33.1847 40.2644 33.6589 40.2644 34.2727C40.2644 34.8483 40.4092 35.3002 40.6975 35.6222C40.9909 35.9466 41.3817 36.1089 41.8698 36.1092C42.377 36.1089 42.7636 35.9447 43.0295 35.6166C43.2898 35.2963 43.42 34.842 43.42 34.2539ZM44.2112 34.2272C44.2112 34.9936 43.9928 35.6096 43.5606 36.0713C43.1294 36.5347 42.547 36.7664 41.8136 36.7664C41.0908 36.7664 40.5161 36.5349 40.0947 36.0713C39.6816 35.6247 39.4748 35.0347 39.4745 34.3013C39.4745 33.4641 39.7108 32.8191 40.1786 32.3611C40.6136 31.9358 41.1961 31.7228 41.9261 31.7222C42.6437 31.7222 43.2034 31.9458 43.6061 32.3888C44.0069 32.8341 44.2112 33.4472 44.2112 34.2272ZM47.6041 30.2053C47.4474 30.1196 47.2712 30.076 47.0926 30.0788C46.5542 30.0788 46.2853 30.4186 46.2859 31.0983V31.8399H47.4133V32.4924H46.2859V36.6506H45.5148V32.4924H44.6969V31.8399H45.5148V31.0599C45.5148 30.5306 45.677 30.1149 46.007 29.8158C46.2892 29.5558 46.6356 29.426 47.0462 29.4263C47.2837 29.4266 47.4695 29.4544 47.6036 29.5097L47.6041 30.2053ZM50.6434 36.6024C50.4612 36.7064 50.2201 36.7585 49.9201 36.7585C49.0805 36.7585 48.6606 36.2852 48.6606 35.3386V32.4933H47.8351V31.8399H48.6606V30.6661L49.4322 30.4163V31.8399H50.643V32.4933H49.4322V35.2078C49.4322 35.5303 49.4847 35.761 49.5953 35.8945C49.7064 36.0328 49.8883 36.1003 50.1451 36.1003C50.3367 36.1006 50.5028 36.0489 50.6434 35.9452V36.6024ZM9.01749 55.426C9.01749 55.8033 8.88343 56.1291 8.61108 56.4042C8.48406 56.5371 8.33099 56.6423 8.16145 56.7133C7.99191 56.7842 7.80955 56.8195 7.62577 56.8167C7.44563 56.8192 7.26697 56.7838 7.10142 56.7127C6.93587 56.6416 6.78712 56.5365 6.66483 56.4042C6.53769 56.2754 6.43738 56.1225 6.36971 55.9546C6.30204 55.7867 6.26836 55.607 6.27061 55.426C6.27061 55.0383 6.4014 54.7111 6.66483 54.4402C6.78766 54.309 6.93665 54.205 7.10218 54.135C7.2677 54.065 7.44608 54.0305 7.62577 54.0338C8.01171 54.0338 8.34015 54.171 8.61108 54.4453C8.88343 54.721 9.01749 55.0481 9.01749 55.426ZM26.2586 56.5341H23.747L14.6308 42.4556C14.412 42.1044 14.227 41.7332 14.0781 41.3471H14.0031C14.0684 41.7246 14.1011 42.5331 14.1011 43.7728V56.5341H12.0311V38.8716H14.718L23.5609 52.7278C23.913 53.2777 24.1539 53.6714 24.2758 53.9086H24.3245C24.242 53.4005 24.2005 52.5349 24.1998 51.3117V38.8716H26.2576V56.5341H26.2586ZM39.5308 56.5341H30.1694V38.8716H39.1244V40.7433H32.2384V46.6186H38.6191V48.4913H32.238V54.6619H39.5308V56.5341ZM53.7297 40.7433H48.6419V56.5346H46.5723V40.7433H41.4747V38.8706H53.7297V40.7433Z" fill="#3D9587"/>
<path fill-rule="evenodd" clip-rule="evenodd" d="M38.4883 21.7171C38.7128 21.1396 38.9674 20.571 39.1572 19.9823C40.2291 16.6557 41.2924 13.3262 42.347 9.9937C42.7525 8.71354 43.1969 7.45307 43.9947 6.35292C45.2566 4.61432 47.0144 3.70354 49.0947 3.38526C49.9142 3.26358 50.7412 3.19998 51.5697 3.19495C54.0386 3.17151 56.5085 3.18792 58.9778 3.19026C59.1091 3.19026 59.2403 3.20385 59.4264 3.21463C59.366 3.35713 59.3331 3.46073 59.2806 3.55401C58.3642 5.19182 57.4656 6.83948 56.522 8.46088C54.8791 11.2837 53.2333 14.1056 51.5388 16.8974C50.4517 18.6876 49.2728 20.4224 47.9355 22.0415C46.9488 23.2359 45.91 24.3778 44.5858 25.2149C43.6835 25.7854 42.7197 26.1192 41.6256 26.1135C37.7453 26.0924 33.865 26.1079 29.9847 26.1023C28.8311 26.1004 27.8435 25.6612 27.0053 24.8821C25.8039 23.766 25.0867 22.3453 24.4999 20.8471C23.4292 18.112 22.8297 15.2451 22.1416 12.4031C21.8191 11.0728 21.4525 9.75276 21.1033 8.42901C21.0808 8.34323 21.0367 8.26307 20.9861 8.13979L20.7156 8.39385C19.2025 9.89713 17.8699 11.5537 16.6774 13.3148C16.3525 13.7948 16.2433 14.4276 16.0619 14.9981C15.3944 17.0934 14.786 19.2089 14.0631 21.2845C13.3708 23.2729 12.1295 24.8545 10.1894 25.7892C9.06422 26.3341 7.83502 26.6306 6.58517 26.6587C4.71955 26.6999 2.85298 26.7046 0.98689 26.7215C0.54064 26.7257 0.520015 26.6892 0.636265 26.2574C1.43642 23.2865 2.45033 20.3915 3.72064 17.5893C5.03033 14.6985 6.57298 11.9418 8.51642 9.42416C9.8397 7.70995 11.3013 6.12838 13.1303 4.9326C14.058 4.32651 15.0442 3.84745 16.1664 3.72135C16.3511 3.70026 16.5381 3.68713 16.7238 3.68713C20.6978 3.68526 24.6719 3.72557 28.6455 3.66885C30.7769 3.63838 32.32 4.53838 33.4755 6.25401C34.1941 7.32088 34.7083 8.48573 35.141 9.68901C36.0133 12.1162 36.5556 14.6329 37.1683 17.1318C37.5189 18.562 37.9094 19.9823 38.2835 21.4068C38.3116 21.5137 38.357 21.6159 38.395 21.7199L38.4883 21.7171Z" fill="#3D9587"/>
</svg>
