<svg width="90" height="90" viewBox="0 0 90 90" fill="none" xmlns="http://www.w3.org/2000/svg">
<path d="M12.1668 22.7895C14.5195 21.1451 18.0662 21.4604 20.1786 23.205L17.7558 19.6834C15.806 16.9026 16.5043 13.8941 19.2876 11.9418C22.0708 9.99706 29.9575 15.2257 29.9575 15.2257C27.9902 12.4174 28.3582 8.85823 31.1664 6.88843C33.9747 4.92615 37.8492 5.60444 39.8165 8.41772L65.897 45.2607L62.5731 77.4858L34.8332 67.369L10.6375 31.4946C8.65268 28.6688 9.33848 24.7718 12.1668 22.7895Z" fill="#EF9645"/>
<path d="M6.74536 43.2857C6.74536 43.2857 3.91205 39.1559 8.04437 36.3251C12.1717 33.4943 15.0025 37.6216 15.0025 37.6216L28.1453 56.789C28.5984 56.0331 29.0939 55.2872 29.6471 54.5513L11.4058 27.9528C11.4058 27.9528 8.57499 23.8255 12.7048 20.9947C16.8321 18.1639 19.6629 22.2912 19.6629 22.2912L36.8204 47.3129C37.4587 46.7923 38.112 46.2692 38.7852 45.7561L18.8945 16.7447C18.8945 16.7447 16.0637 12.6174 20.1935 9.78662C24.3209 6.95582 27.1517 11.0831 27.1517 11.0831L47.0424 40.0895C47.7732 39.6414 48.4966 39.2535 49.2224 38.843L30.6307 11.7314C30.6307 11.7314 27.7999 7.60407 31.9272 4.77327C36.0546 1.94247 38.8854 6.06979 38.8854 6.06979L58.5433 34.7382L61.5318 39.0983C49.1473 47.5932 47.9685 63.5744 55.0442 73.8939C56.4584 75.9588 58.5233 74.5447 58.5233 74.5447C50.0309 62.1577 52.6239 48.239 65.0108 39.7466L61.3591 21.4703C61.3591 21.4703 59.995 16.6546 64.8081 15.288C69.6237 13.9239 70.9903 18.7396 70.9903 18.7396L75.2077 31.2642C76.8797 36.23 78.6593 41.1782 81.0145 45.8587C87.6648 59.0741 83.6926 75.4983 71.153 84.1008C57.4745 93.4793 38.7752 89.9927 29.3943 76.3167L6.74536 43.2857Z" fill="#FFDC5D"/>
<path d="M30.0352 80.0933C20.0235 80.0933 9.90672 69.9765 9.90672 59.9648C9.90672 58.5807 8.89304 57.4619 7.50892 57.4619C6.12481 57.4619 4.90088 58.5807 4.90088 59.9648C4.90088 74.9824 15.0177 85.0992 30.0352 85.0992C31.4193 85.0992 32.5381 83.8752 32.5381 82.4911C32.5381 81.107 31.4193 80.0933 30.0352 80.0933Z" fill="#5DADEC"/>
<path d="M17.5204 84.9943C10.0117 84.9943 5.00584 79.9885 5.00584 72.4797C5.00584 71.0956 3.88703 69.9768 2.50292 69.9768C1.11881 69.9768 0 71.0956 0 72.4797C0 82.4914 7.50876 90.0002 17.5204 90.0002C18.9046 90.0002 20.0234 88.8814 20.0234 87.4972C20.0234 86.1131 18.9046 84.9943 17.5204 84.9943ZM60.0701 4.90088C58.6885 4.90088 57.5672 6.02219 57.5672 7.4038C57.5672 8.78541 58.6885 9.90672 60.0701 9.90672C70.0818 9.90672 80.0934 18.8897 80.0934 29.9301C80.0934 31.3117 81.2148 32.433 82.5964 32.433C83.978 32.433 85.0993 31.3117 85.0993 29.9301C85.0993 16.129 75.0876 4.90088 60.0701 4.90088Z" fill="#5DADEC"/>
<path d="M72.585 0C71.2033 0 70.082 1.01619 70.082 2.3978C70.082 3.77941 71.2033 5.00584 72.585 5.00584C80.0937 5.00584 84.9944 10.5748 84.9944 17.4153C84.9944 18.7969 86.2184 19.9182 87.6025 19.9182C88.9866 19.9182 90.0003 18.7969 90.0003 17.4153C90.0003 7.81161 82.5966 0 72.585 0Z" fill="#5DADEC"/>
</svg>
