<svg width="110" height="111" viewBox="0 0 110 111" fill="none" xmlns="http://www.w3.org/2000/svg">
<path d="M33.9058 25.2487H37.2603V27.9205H40.3288V25.2487H43.6835V33.3398H40.329V30.6304H37.2604V33.3398H33.9059L33.9058 25.2487Z" fill="#3D9587"/>
<path d="M48.0947 27.9318H45.1416V25.2487H54.404V27.9318H51.4495V33.3398H48.0949L48.0947 27.9318Z" fill="#3D9587"/>
<path d="M55.874 25.2487H59.3718L61.5234 28.0916L63.6729 25.2487H67.172V33.3398H63.8313V29.3294L61.5234 32.2062H61.4657L59.1562 29.3294V33.3398H55.874V25.2487Z" fill="#3D9587"/>
<path d="M68.8415 25.2487H72.197V30.6653H76.9144V33.3398H68.8415V25.2487Z" fill="#3D9587"/>
<path fill-rule="evenodd" clip-rule="evenodd" d="M29 37.0401L33.7985 80.4296L55.3314 85.2487L76.9237 80.4228L81.7273 37.0401H29ZM46.6289 56.6803H70.6845L70.5234 58.1093L68.873 73.0183L55.3636 76.0367V76.0376L55.3333 76.0444L41.8118 73.0183L40.887 64.6627H47.5133L47.9832 68.9069L55.3347 70.5072L55.3408 70.5059L62.7029 68.9035L63.4691 62.0018H40.5921L38.8117 45.9094H71.8762L71.2851 51.231H46.0257L46.6289 56.6803Z" fill="#3D9587"/>
</svg>
