<svg width="110" height="111" viewBox="0 0 110 111" fill="none" xmlns="http://www.w3.org/2000/svg">
<path d="M25 25.2487V85.2487H85V25.2487H25ZM57.1429 71.8558C57.1429 77.6964 53.6929 80.5437 48.6987 80.5437C44.1879 80.5437 41.5696 78.208 40.2411 75.3888L44.8321 72.6098C45.7174 74.1808 46.3897 75.5094 48.3223 75.5094C49.9295 75.5094 51.25 74.7848 51.25 71.9656V53.1058H57.1429V71.8558ZM70.4487 80.4098C65.2134 80.4098 61.8304 78.0473 60.179 74.7848L64.7768 72.1237C65.9821 74.0978 67.5558 75.4129 70.3348 75.4129C72.6705 75.4129 74.0272 74.379 74.0272 72.7679C74.0272 70.8353 72.6304 70.1509 70.0522 69.0179L68.6433 68.4125C64.5746 66.6821 61.8772 64.5071 61.8772 59.9147C61.8772 55.6866 65.0982 52.5982 70.1326 52.5982C73.7179 52.5982 76.2933 53.7125 78.1482 56.975L73.75 59.8022C72.783 58.0705 71.7411 57.3915 70.1259 57.3915C68.4746 57.3915 67.4272 58.4388 67.4272 59.8022C67.4272 61.4937 68.4746 62.1781 70.8906 63.2254L72.2996 63.8295C77.0929 65.8839 79.7915 67.9813 79.7915 72.6902C79.7929 77.7661 75.8058 80.4098 70.4487 80.4098Z" fill="#3D9587"/>
</svg>
