<svg width="24" height="24" viewBox="0 0 24 24" fill="none" xmlns="http://www.w3.org/2000/svg">
<path d="M2 12C2 6.47704 6.477 2.00004 12 2.00004C12.463 2.00004 12.54 2.69304 12.143 2.93304C11.2987 3.4428 10.5814 4.13801 10.0455 4.96603C9.50967 5.79405 9.16926 6.73315 9.0501 7.71221C8.93093 8.69127 9.03613 9.68461 9.35772 10.617C9.67932 11.5494 10.2089 12.3964 10.9063 13.0938C11.6037 13.7912 12.4507 14.3207 13.383 14.6423C14.3154 14.9639 15.3088 15.0691 16.2878 14.9499C17.2669 14.8308 18.206 14.4904 19.034 13.9545C19.862 13.4186 20.5572 12.7014 21.067 11.857C21.307 11.461 22 11.537 22 12C22 13.138 21.81 14.231 21.46 15.25H22C22.1989 15.25 22.3897 15.3291 22.5303 15.4697C22.671 15.6104 22.75 15.8011 22.75 16C22.75 16.199 22.671 16.3897 22.5303 16.5304C22.3897 16.671 22.1989 16.75 22 16.75H2C1.80109 16.75 1.61032 16.671 1.46967 16.5304C1.32902 16.3897 1.25 16.199 1.25 16C1.25 15.8011 1.32902 15.6104 1.46967 15.4697C1.61032 15.3291 1.80109 15.25 2 15.25H2.54C2.18132 14.2041 1.99884 13.1058 2 12ZM5 18.25C4.80109 18.25 4.61032 18.3291 4.46967 18.4697C4.32902 18.6104 4.25 18.8011 4.25 19C4.25 19.199 4.32902 19.3897 4.46967 19.5304C4.61032 19.671 4.80109 19.75 5 19.75H19C19.1989 19.75 19.3897 19.671 19.5303 19.5304C19.671 19.3897 19.75 19.199 19.75 19C19.75 18.8011 19.671 18.6104 19.5303 18.4697C19.3897 18.3291 19.1989 18.25 19 18.25H5ZM8 21.25C7.80109 21.25 7.61032 21.3291 7.46967 21.4697C7.32902 21.6104 7.25 21.8011 7.25 22C7.25 22.199 7.32902 22.3897 7.46967 22.5304C7.61032 22.671 7.80109 22.75 8 22.75H16C16.1989 22.75 16.3897 22.671 16.5303 22.5304C16.671 22.3897 16.75 22.199 16.75 22C16.75 21.8011 16.671 21.6104 16.5303 21.4697C16.3897 21.3291 16.1989 21.25 16 21.25H8ZM19.9 2.30704C19.8647 2.21644 19.8028 2.13861 19.7225 2.08374C19.6422 2.02887 19.5472 1.99951 19.45 1.99951C19.3528 1.99951 19.2578 2.02887 19.1775 2.08374C19.0972 2.13861 19.0353 2.21644 19 2.30704L18.57 3.40204C18.5459 3.46393 18.5093 3.5202 18.4625 3.56734C18.4157 3.61448 18.3597 3.65148 18.298 3.67604L17.207 4.10804C17.1167 4.14403 17.0392 4.2063 16.9846 4.28679C16.93 4.36728 16.9008 4.46229 16.9008 4.55954C16.9008 4.6568 16.93 4.75181 16.9846 4.8323C17.0392 4.91279 17.1167 4.97506 17.207 5.01104L18.298 5.44304C18.3597 5.46729 18.4158 5.50406 18.4626 5.55105C18.5094 5.59804 18.546 5.65422 18.57 5.71604L19 6.81004C19.162 7.22004 19.74 7.22004 19.9 6.81004L20.33 5.71504C20.3543 5.65324 20.3911 5.59711 20.4381 5.55014C20.4851 5.50318 20.5412 5.46638 20.603 5.44204L21.694 5.01004C21.7843 4.97406 21.8618 4.91179 21.9164 4.8313C21.971 4.75081 22.0002 4.65579 22.0002 4.55854C22.0002 4.46129 21.971 4.36628 21.9164 4.28579C21.8618 4.2053 21.7843 4.14303 21.694 4.10704L20.603 3.67504C20.5411 3.6506 20.4849 3.61364 20.4379 3.5665C20.391 3.51936 20.3542 3.46303 20.33 3.40104L19.9 2.30704Z" fill="#0A192F"/>
<path d="M16.0329 8.13004C15.9976 8.03944 15.9357 7.96161 15.8554 7.90674C15.7751 7.85187 15.6802 7.82251 15.5829 7.82251C15.4857 7.82251 15.3907 7.85187 15.3104 7.90674C15.2301 7.96161 15.1682 8.03944 15.1329 8.13004L14.9759 8.52904C14.9517 8.59075 14.915 8.64682 14.8683 8.69378C14.8215 8.74074 14.7655 8.77759 14.7039 8.80204L14.3059 8.96004C14.2156 8.99603 14.1381 9.05829 14.0835 9.13879C14.0289 9.21928 13.9998 9.31429 13.9998 9.41154C13.9998 9.50879 14.0289 9.60381 14.0835 9.6843C14.1381 9.76479 14.2156 9.82705 14.3059 9.86304L14.7039 10.02C14.8289 10.07 14.9269 10.168 14.9759 10.294L15.1329 10.693C15.2939 11.103 15.8719 11.103 16.0329 10.693L16.1899 10.293C16.2141 10.2313 16.2508 10.1753 16.2976 10.1283C16.3444 10.0813 16.4003 10.0445 16.4619 10.02L16.8599 9.86304C16.9503 9.82705 17.0277 9.76479 17.0823 9.6843C17.1369 9.60381 17.1661 9.50879 17.1661 9.41154C17.1661 9.31429 17.1369 9.21928 17.0823 9.13879C17.0277 9.05829 16.9503 8.99603 16.8599 8.96004L16.4619 8.80204C16.4003 8.77759 16.3444 8.74074 16.2976 8.69378C16.2508 8.64682 16.2141 8.59075 16.1899 8.52904L16.0329 8.12904V8.13004Z" fill="#111111"/>
</svg>
