<svg width="60" height="60" viewBox="0 0 60 60" fill="none" xmlns="http://www.w3.org/2000/svg">
<path d="M44.528 56.2537C44.3049 56.3718 44.3236 56.4093 44.5374 56.3005C44.6032 56.2736 44.6636 56.2349 44.7155 56.1862C44.7155 56.1468 44.7155 56.1468 44.528 56.2537ZM44.978 56.0099C44.8711 56.098 44.8711 56.098 44.9986 56.0399C45.0457 56.0179 45.0888 55.9881 45.1261 55.9518C45.1261 55.9012 45.0961 55.9124 44.978 56.0099ZM45.2705 55.8337C45.1636 55.9218 45.1636 55.9218 45.2911 55.8637C45.3384 55.8411 45.3815 55.8107 45.4186 55.7737C45.4186 55.7268 45.3886 55.7362 45.2705 55.8337ZM45.5667 55.6593C45.4598 55.7474 45.4598 55.7474 45.5836 55.6874C45.653 55.6499 45.7111 55.6105 45.7111 55.5993C45.7111 55.5524 45.6811 55.5618 45.5667 55.6593ZM45.9661 55.3949C45.7617 55.5318 45.6904 55.6199 45.8779 55.5224C46.0036 55.4455 46.2173 55.2768 46.1798 55.2768C46.0992 55.3068 46.0317 55.3574 45.9642 55.3949H45.9661ZM28.036 0.0137816C27.8991 0.0231568 27.4885 0.0606575 27.1285 0.0906581C18.6013 0.863174 10.6234 5.45327 5.5667 12.524C2.77222 16.4021 0.955767 20.8978 0.271867 25.6287C0.0299991 27.2787 0 27.7662 0 30.0031C0 32.2382 0.0299991 32.7182 0.271867 34.3682C1.90494 45.6391 9.92219 55.1005 20.7894 58.6068C22.7449 59.2312 24.7942 59.6625 27.1285 59.9269C28.036 60.0244 31.9603 60.0244 32.8677 59.9269C36.9026 59.4769 40.3094 58.4812 43.6805 56.7618C44.198 56.4993 44.2955 56.4299 44.2261 56.3718C42.5816 54.1978 40.951 52.0134 39.3344 49.8185L34.5402 43.344L28.5347 34.447C26.5371 31.468 24.519 28.5029 22.4805 25.5518C22.4599 25.5518 22.4337 29.5063 22.4224 34.3289C22.4018 42.7759 22.4018 43.119 22.2949 43.314C22.1924 43.5496 22.0088 43.7406 21.7774 43.8522C21.5918 43.9403 21.425 43.959 20.5381 43.959H19.5238L19.2594 43.794C19.0938 43.6878 18.9593 43.5397 18.8694 43.3647L18.7419 43.1003L18.7513 31.3419L18.7719 19.5836L18.9575 19.3492C19.0761 19.2051 19.222 19.0859 19.3869 18.9985C19.6325 18.8804 19.73 18.8617 20.7444 18.8617C21.9349 18.8617 22.1318 18.9085 22.4449 19.2517C24.8777 22.8703 27.2896 26.5029 29.6803 30.1494C33.5783 36.0595 38.8994 44.124 41.515 48.0804L46.2717 55.2787L46.506 55.123C48.7921 53.6038 50.8637 51.7844 52.6652 49.7135C56.4443 45.388 58.8964 40.0648 59.7281 34.3814C59.97 32.7313 60 32.2419 60 30.0069C60 27.77 59.97 27.2918 59.7281 25.6418C58.0951 14.3709 50.0778 4.90951 39.2107 1.40131C37.1797 0.758024 35.0893 0.320196 32.9708 0.0944082C32.4027 0.036282 28.5254 -0.0330944 28.0379 0.0175317L28.036 0.0137816ZM40.3112 18.1585C40.4507 18.227 40.5751 18.3227 40.6772 18.4399C40.7793 18.5571 40.8569 18.6935 40.9056 18.841C40.9562 18.9985 40.9656 22.2592 40.9562 29.6038L40.9356 40.149L39.0813 37.2989L37.2157 34.447V26.7912C37.2157 21.828 37.2363 19.0454 37.2626 18.9085C37.3544 18.5947 37.5649 18.329 37.8494 18.1679C38.0819 18.0498 38.1719 18.0404 39.1 18.0404C39.9681 18.0404 40.1162 18.0498 40.3112 18.1585Z" fill="#3D9587"/>
</svg>
