<svg width="110" height="111" viewBox="0 0 110 111" fill="none" xmlns="http://www.w3.org/2000/svg">
<path d="M55 60.5699C57.5731 60.5699 59.6591 58.4839 59.6591 55.9108C59.6591 53.3376 57.5731 51.2517 55 51.2517C52.4269 51.2517 50.3409 53.3376 50.3409 55.9108C50.3409 58.4839 52.4269 60.5699 55 60.5699Z" fill="white"/>
<path d="M55 60.5699C57.5731 60.5699 59.6591 58.4839 59.6591 55.9108C59.6591 53.3376 57.5731 51.2517 55 51.2517C52.4269 51.2517 50.3409 53.3376 50.3409 55.9108C50.3409 58.4839 52.4269 60.5699 55 60.5699Z" stroke="#3D9587" stroke-width="4"/>
<path d="M55 65.4562C68.8071 65.4562 80 61.1826 80 55.9108C80 50.639 68.8071 46.3653 55 46.3653C41.1929 46.3653 30 50.639 30 55.9108C30 61.1826 41.1929 65.4562 55 65.4562Z" stroke="#3D9587" stroke-width="4"/>
<path d="M46.7334 60.6835C53.637 72.6408 62.9345 80.1973 67.5 77.5614C72.0655 74.9255 70.1702 63.0954 63.2666 51.138C56.363 39.1807 47.0655 31.6242 42.5 34.2601C37.9345 36.896 39.8298 48.7262 46.7334 60.6835Z" stroke="#3D9587" stroke-width="4"/>
<path d="M46.7334 51.138C39.8298 63.0953 37.9345 74.9255 42.5 77.5614C47.0655 80.1973 56.363 72.6408 63.2666 60.6835C70.1702 48.7262 72.0655 36.896 67.5 34.2601C62.9345 31.6242 53.637 39.1807 46.7334 51.138Z" stroke="#3D9587" stroke-width="4"/>
</svg>
