<svg width="24" height="24" viewBox="0 0 24 24" fill="none" xmlns="http://www.w3.org/2000/svg">
<path d="M23.25 15C23.25 15.1989 23.171 15.3897 23.0303 15.5303C22.8897 15.671 22.6989 15.75 22.5 15.75H1.5C1.30109 15.75 1.11032 15.671 0.96967 15.5303C0.829018 15.3897 0.75 15.1989 0.75 15C0.75 14.8011 0.829018 14.6103 0.96967 14.4697C1.11032 14.329 1.30109 14.25 1.5 14.25H5.29219C5.26451 14.0009 5.25042 13.7506 5.25 13.5C5.25 11.7098 5.96116 9.99289 7.22703 8.72702C8.4929 7.46115 10.2098 6.74999 12 6.74999C13.7902 6.74999 15.5071 7.46115 16.773 8.72702C18.0388 9.99289 18.75 11.7098 18.75 13.5C18.7496 13.7506 18.7355 14.0009 18.7078 14.25H22.5C22.6989 14.25 22.8897 14.329 23.0303 14.4697C23.171 14.6103 23.25 14.8011 23.25 15ZM19.5 18H4.5C4.30109 18 4.11032 18.079 3.96967 18.2197C3.82902 18.3603 3.75 18.5511 3.75 18.75C3.75 18.9489 3.82902 19.1397 3.96967 19.2803C4.11032 19.421 4.30109 19.5 4.5 19.5H19.5C19.6989 19.5 19.8897 19.421 20.0303 19.2803C20.171 19.1397 20.25 18.9489 20.25 18.75C20.25 18.5511 20.171 18.3603 20.0303 18.2197C19.8897 18.079 19.6989 18 19.5 18ZM7.57875 5.58562C7.62282 5.67377 7.68383 5.75237 7.75828 5.81695C7.83274 5.88152 7.91918 5.9308 8.01268 5.96196C8.10617 5.99313 8.20489 6.00557 8.3032 5.99859C8.40151 5.9916 8.49748 5.96532 8.58563 5.92124C8.67377 5.87717 8.75238 5.81616 8.81695 5.74171C8.88153 5.66726 8.9308 5.58081 8.96197 5.48732C8.99313 5.39382 9.00558 5.2951 8.99859 5.19679C8.99161 5.09849 8.96533 5.00252 8.92125 4.91437L8.17125 3.41437C8.08224 3.23634 7.92615 3.10097 7.73732 3.03802C7.5485 2.97508 7.3424 2.98973 7.16437 3.07874C6.98635 3.16776 6.85097 3.32384 6.78803 3.51267C6.72509 3.7015 6.73974 3.90759 6.82875 4.08562L7.57875 5.58562ZM1.91438 9.67124L3.41437 10.4212C3.59228 10.5103 3.79825 10.525 3.98699 10.4621C4.17573 10.3992 4.33177 10.264 4.42078 10.0861C4.50979 9.90818 4.52449 9.70221 4.46164 9.51347C4.39878 9.32473 4.26353 9.16869 4.08563 9.07968L2.58562 8.32968C2.49754 8.28561 2.40163 8.25931 2.30338 8.2523C2.20513 8.24529 2.10646 8.2577 2.01301 8.28882C1.91956 8.31995 1.83315 8.36917 1.75872 8.43369C1.68429 8.4982 1.62329 8.57675 1.57922 8.66484C1.53514 8.75293 1.50885 8.84883 1.50184 8.94708C1.49483 9.04533 1.50724 9.144 1.53836 9.23745C1.56949 9.33091 1.61871 9.41731 1.68323 9.49174C1.74774 9.56617 1.82629 9.62717 1.91438 9.67124ZM20.25 10.5C20.3662 10.5 20.4807 10.4731 20.5847 10.4212L22.0847 9.67124C22.1728 9.62717 22.2513 9.56617 22.3158 9.49174C22.3804 9.41731 22.4296 9.33091 22.4607 9.23745C22.4918 9.144 22.5042 9.04533 22.4972 8.94708C22.4902 8.84883 22.4639 8.75293 22.4198 8.66484C22.3758 8.57675 22.3148 8.4982 22.2403 8.43369C22.1659 8.36917 22.0795 8.31995 21.9861 8.28882C21.8926 8.2577 21.7939 8.24529 21.6957 8.2523C21.5974 8.25931 21.5015 8.28561 21.4134 8.32968L19.9134 9.07968C19.7625 9.15543 19.6416 9.27989 19.5702 9.43293C19.4988 9.58596 19.4811 9.75861 19.5201 9.92293C19.559 10.0872 19.6523 10.2336 19.7847 10.3383C19.9172 10.4431 20.0811 10.5 20.25 10.5ZM15.4144 5.92124C15.5025 5.96538 15.5985 5.99171 15.6968 5.99873C15.7951 6.00575 15.8939 5.99332 15.9874 5.96215C16.0809 5.93098 16.1674 5.88168 16.2418 5.81707C16.3162 5.75246 16.3772 5.67381 16.4213 5.58562L17.1713 4.08562C17.2603 3.90759 17.2749 3.7015 17.212 3.51267C17.149 3.32384 17.0137 3.16776 16.8356 3.07874C16.6576 2.98973 16.4515 2.97508 16.2627 3.03802C16.0739 3.10097 15.9178 3.23634 15.8287 3.41437L15.0787 4.91437C15.0346 5.00251 15.0083 5.09848 15.0013 5.1968C14.9942 5.29512 15.0067 5.39386 15.0378 5.48738C15.069 5.58089 15.1183 5.66734 15.1829 5.74179C15.2475 5.81624 15.3262 5.87722 15.4144 5.92124Z" fill="#E0B828"/>
</svg>
