<svg width="110" height="111" viewBox="0 0 110 111" fill="none" xmlns="http://www.w3.org/2000/svg">
<path d="M55 37.5266C48.3332 37.5266 44.168 41.5251 42.5 49.5252C44.9992 45.5263 47.9168 44.0268 51.2492 45.0266C53.152 45.5957 54.5117 47.2513 56.0176 49.086C58.4684 52.0705 61.3051 55.5257 67.5 55.5257C74.1664 55.5257 78.332 51.5268 80 43.5247C77.5004 47.526 74.5832 49.0255 71.2504 48.0257C69.348 47.4561 67.9898 45.801 66.482 43.9663C64.0328 40.9818 61.1969 37.5266 55 37.5266ZM42.5 55.5257C35.8336 55.5257 31.668 59.5246 30 67.5266C32.4992 63.5254 35.4164 62.0258 38.7492 63.0257C40.652 63.5952 42.0117 65.2504 43.5176 67.0851C45.9684 70.0696 48.8051 73.5247 55 73.5247C61.6664 73.5247 65.832 69.5263 67.5 61.5261C65.0004 65.5251 62.0832 67.0246 58.7504 66.0247C56.848 65.4557 55.4898 63.8 53.982 61.9654C51.5328 58.9808 48.6969 55.5257 42.5 55.5257Z" fill="#3D9587"/>
</svg>
